<svg version="1.1" id="Capa_1" xmlns="http://www.w3.org/2000/svg" xmlns:xlink="http://www.w3.org/1999/xlink" x="0px" y="0px"
	 viewBox="0 0 512 512" style="enable-background:new 0 0 512 512;" xml:space="preserve">
<g>
	<path d="M22.2,278.2h414.2L337.5,377c-8.7,8.7-8.7,22.7,0,31.3c8.7,8.7,22.7,8.7,31.3,0l136.7-136.7
		c8.7-8.7,8.7-22.7,0-31.3L368.8,103.7c-4.3-4.3-10-6.5-15.7-6.5c-5.7,0-11.3,2.2-15.7,6.5c-8.7,8.7-8.7,22.7,0,31.3l98.8,98.8H22.2
		C9.9,233.8,0,243.8,0,256C0,268.2,9.9,278.2,22.2,278.2z" fill="#ffffff"/>
</g>
</svg>
